<svg width="16" height="16" viewBox="0 0 16 16" fill="none" xmlns="http://www.w3.org/2000/svg">
<mask id="mask0_1433_13197" style="mask-type:alpha" maskUnits="userSpaceOnUse" x="0" y="0" width="16" height="16">
<path fill-rule="evenodd" clip-rule="evenodd" d="M4.00017 3.33333C3.64655 3.33333 3.30741 3.47381 3.05736 3.72386C2.80731 3.97391 2.66684 4.31304 2.66684 4.66667V10C2.66684 10.3536 2.80731 10.6928 3.05736 10.9428C3.30741 11.1929 3.64655 11.3333 4.00017 11.3333H5.33351C5.7017 11.3333 6.00018 11.6318 6.00018 12V12.8225L8.32386 11.4283C8.42747 11.3662 8.54603 11.3333 8.66686 11.3333H12.0002C12.3538 11.3333 12.693 11.1929 12.943 10.9428C13.1931 10.6928 13.3335 10.3536 13.3335 10V4.66667C13.3335 4.31304 13.1931 3.97391 12.943 3.72386C12.693 3.47381 12.3538 3.33333 12.0002 3.33333H4.00017ZM2.11455 2.78105C2.61465 2.28095 3.29293 2 4.00017 2H12.0002C12.7075 2 13.3857 2.28095 13.8858 2.78105C14.3859 3.28115 14.6669 3.95942 14.6669 4.66667V10C14.6669 10.7072 14.3859 11.3855 13.8858 11.8856C13.3857 12.3857 12.7075 12.6667 12.0002 12.6667H8.85152L5.67651 14.5717C5.47056 14.6952 5.21405 14.6985 5.00505 14.5801C4.79604 14.4618 4.66684 14.2402 4.66684 14V12.6667H4.00017C3.29293 12.6667 2.61465 12.3857 2.11455 11.8856C1.61445 11.3855 1.3335 10.7072 1.3335 10V4.66667C1.3335 3.95942 1.61445 3.28115 2.11455 2.78105ZM4.66684 6C4.66684 5.63181 4.96532 5.33333 5.33351 5.33333H10.6669C11.0351 5.33333 11.3335 5.63181 11.3335 6C11.3335 6.36819 11.0351 6.66667 10.6669 6.66667H5.33351C4.96532 6.66667 4.66684 6.36819 4.66684 6ZM4.66684 8.66667C4.66684 8.29848 4.96532 8 5.33351 8H9.33353C9.70172 8 10.0002 8.29848 10.0002 8.66667C10.0002 9.03486 9.70172 9.33333 9.33353 9.33333H5.33351C4.96532 9.33333 4.66684 9.03486 4.66684 8.66667Z" fill="black"/>
</mask>
<g mask="url(#mask0_1433_13197)">
<rect width="15.9999" height="16" fill="#999999"/>
</g>
</svg>
