<svg width="12" height="12" viewBox="0 0 12 12" fill="none" xmlns="http://www.w3.org/2000/svg">
<mask id="mask0_1517_15305" style="mask-type:alpha" maskUnits="userSpaceOnUse" x="0" y="0" width="12" height="12">
<path fill-rule="evenodd" clip-rule="evenodd" d="M7.5175 1.98153C7.74974 1.88533 7.99866 1.83582 8.25004 1.83582C8.50142 1.83582 8.75034 1.88533 8.98258 1.98153C9.21483 2.07772 9.42585 2.21872 9.6036 2.39648C9.78135 2.57423 9.92235 2.78525 10.0186 3.01749C10.1148 3.24974 10.1643 3.49865 10.1643 3.75003C10.1643 4.00141 10.1148 4.25032 10.0186 4.48257C9.92235 4.71481 9.78135 4.92583 9.6036 5.10358L4.35357 10.3536C4.2598 10.4474 4.13262 10.5 4.00001 10.5H2C1.72386 10.5 1.5 10.2762 1.5 10V8.00003C1.5 7.86742 1.55268 7.74024 1.64645 7.64648L6.39638 2.89657L6.89648 2.39648C7.07423 2.21872 7.28525 2.07772 7.5175 1.98153ZM6.75003 3.95714L2.50001 8.20714V9.50003H3.79291L8.04293 5.25003L6.75003 3.95714ZM8.75004 4.54292L7.45714 3.25003L7.60359 3.10358C7.68848 3.01869 7.78926 2.95135 7.90018 2.90541C8.0111 2.85946 8.12998 2.83582 8.25004 2.83582C8.3701 2.83582 8.48898 2.85946 8.5999 2.90541C8.71081 2.95135 8.8116 3.01869 8.89649 3.10358C8.98138 3.18848 9.04872 3.28926 9.09467 3.40017C9.14061 3.51109 9.16426 3.62997 9.16426 3.75003C9.16426 3.87009 9.14061 3.98897 9.09467 4.09988C9.04872 4.2108 8.98138 4.31158 8.89649 4.39648L8.75004 4.54292Z" fill="black"/>
</mask>
<g mask="url(#mask0_1517_15305)">
<rect width="11.9999" height="12" fill="#999999"/>
</g>
</svg>
