<svg width="32" height="32" viewBox="0 0 32 32" fill="none" xmlns="http://www.w3.org/2000/svg">
<mask id="mask0_1545_10854" style="mask-type:alpha" maskUnits="userSpaceOnUse" x="0" y="0" width="32" height="32">
<g clip-path="url(#clip0_1545_10854)">
<path d="M22.4 27.9999H9.60001C8.00001 27.9999 7.06667 27.9999 6.13334 27.5999C5.33334 27.1999 4.8 26.6666 4.4 25.8666C4 24.9333 4 23.9999 4 22.3999V9.59992C4 7.99992 4 7.06658 4.4 6.13325C4.8 5.33325 5.33334 4.79992 6.13334 4.39992C7.06667 3.99992 8.00001 3.99992 9.60001 3.99992H13.3334C14.1334 3.99992 14.6667 4.53325 14.6667 5.33325C14.6667 6.13325 14.1334 6.66658 13.3334 6.66658H9.60001C8.40001 6.66658 7.73334 6.66658 7.33334 6.79992C7.20001 6.93325 6.93334 7.19992 6.80001 7.33325C6.66667 7.73325 6.66667 8.39992 6.66667 9.59992V22.3999C6.66667 23.5999 6.66667 24.2666 6.80001 24.6666C6.93334 24.9333 7.06667 25.0666 7.33334 25.1999C7.73334 25.3333 8.40001 25.3333 9.60001 25.3333H22.4C23.6 25.3333 24.2667 25.3333 24.6667 25.1999C24.9334 25.0666 25.0667 24.9333 25.2 24.6666C25.3334 24.3999 25.3334 23.5999 25.3334 22.3999V18.6666C25.3334 17.8666 25.8667 17.3333 26.6667 17.3333C27.4667 17.3333 28.0001 17.8666 28.0001 18.6666V22.3999C28.0001 23.9999 28.0001 24.9333 27.6001 25.8666C27.2001 26.6666 26.6667 27.1999 25.8667 27.5999C24.9334 27.9999 24 27.9999 22.4 27.9999ZM17.3334 19.9999H13.3334C12.5334 19.9999 12 19.4666 12 18.6666V14.6666C12 14.2666 12.1334 13.9999 12.4 13.7333L24.4 1.73325C24.9334 1.19992 25.7334 1.19992 26.2667 1.73325L30.2667 5.73325C30.8001 6.26658 30.8001 7.06658 30.2667 7.59992L18.2667 19.5999C18 19.8666 17.7334 19.9999 17.3334 19.9999ZM14.6667 17.3333H16.8L23.4667 10.6666L21.3334 8.53325L14.6667 15.1999V17.3333ZM23.2 6.66658L25.3334 8.79992L27.4667 6.66658L25.3334 4.53325L23.2 6.66658Z" fill="black"/>
</g>
</mask>
<g mask="url(#mask0_1545_10854)">
<rect width="31.9999" height="32" fill="white"/>
</g>
<defs>
<clipPath id="clip0_1545_10854">
<rect width="26.6667" height="26.6667" fill="white" transform="translate(4 1.33325)"/>
</clipPath>
</defs>
</svg>
