<svg width="12" height="12" viewBox="0 0 12 12" fill="none" xmlns="http://www.w3.org/2000/svg">
<mask id="mask0_1517_15304" style="mask-type:alpha" maskUnits="userSpaceOnUse" x="0" y="0" width="12" height="12">
<path fill-rule="evenodd" clip-rule="evenodd" d="M4.99983 1.95005C4.98656 1.95005 4.97385 1.95532 4.96447 1.96469C4.95509 1.97407 4.94982 1.98679 4.94982 2.00005V3.05005H7.04984V2.00005C7.04984 1.98679 7.04457 1.97407 7.03519 1.96469C7.02582 1.95532 7.0131 1.95005 6.99984 1.95005H4.99983ZM7.94984 3.05005V2.00005C7.94984 1.74809 7.84975 1.50646 7.67159 1.3283C7.49343 1.15014 7.25179 1.05005 6.99984 1.05005H4.99983C4.74787 1.05005 4.50623 1.15014 4.32807 1.3283C4.14991 1.50646 4.04982 1.74809 4.04982 2.00005V3.05005H2.50506C2.5019 3.05002 2.49874 3.05002 2.49556 3.05005H1.99981C1.75128 3.05005 1.5498 3.25152 1.5498 3.50005C1.5498 3.74858 1.75128 3.95005 1.99981 3.95005H2.08575L2.54995 9.52049C2.55527 9.89766 2.7074 10.2582 2.97451 10.5254C3.24644 10.7973 3.61525 10.95 3.99982 10.95H7.99984C8.38441 10.95 8.75322 10.7973 9.02515 10.5254C9.29226 10.2582 9.44439 9.89767 9.44971 9.5205L9.91391 3.95005H9.99985C10.2484 3.95005 10.4499 3.74858 10.4499 3.50005C10.4499 3.25152 10.2484 3.05005 9.99985 3.05005H9.5041C9.50093 3.05002 9.49776 3.05002 9.4946 3.05005H7.94984ZM2.98887 3.95005L3.44826 9.46268C3.4493 9.47511 3.44982 9.48758 3.44982 9.50005C3.44982 9.64592 3.50776 9.78581 3.61091 9.88896C3.71405 9.9921 3.85395 10.05 3.99982 10.05H7.99984C8.14571 10.05 8.28561 9.9921 8.38875 9.88896C8.4919 9.78581 8.54985 9.64592 8.54985 9.50005C8.54985 9.48758 8.55036 9.47511 8.5514 9.46268L9.01079 3.95005H2.98887ZM4.99983 5.05005C5.24835 5.05005 5.44983 5.25152 5.44983 5.50005V8.50005C5.44983 8.74858 5.24835 8.95005 4.99983 8.95005C4.7513 8.95005 4.54982 8.74858 4.54982 8.50005V5.50005C4.54982 5.25152 4.7513 5.05005 4.99983 5.05005ZM6.99984 5.05005C7.24837 5.05005 7.44984 5.25152 7.44984 5.50005V8.50005C7.44984 8.74858 7.24837 8.95005 6.99984 8.95005C6.75131 8.95005 6.54983 8.74858 6.54983 8.50005V5.50005C6.54983 5.25152 6.75131 5.05005 6.99984 5.05005Z" fill="black"/>
</mask>
<g mask="url(#mask0_1517_15304)">
<rect width="11.9999" height="12" fill="#999999"/>
</g>
</svg>
