<svg width="16" height="16" viewBox="0 0 16 16" fill="none" xmlns="http://www.w3.org/2000/svg">
<mask id="mask0_1433_13039" style="mask-type:alpha" maskUnits="userSpaceOnUse" x="0" y="0" width="16" height="16">
<path d="M3.33334 14.6666C2.96667 14.6666 2.65289 14.5362 2.392 14.2753C2.13111 14.0144 2.00044 13.7004 2 13.3333V10.8C2 10.6444 2.02778 10.4889 2.08333 10.3333C2.13889 10.1778 2.22222 10.0389 2.33333 9.91664L3.36667 8.74998C3.4889 8.60553 3.64734 8.53064 3.84201 8.52531C4.03668 8.51998 4.20045 8.58376 4.33334 8.71664C4.45557 8.83887 4.52223 8.98887 4.53334 9.16664C4.54446 9.34442 4.4889 9.49998 4.36668 9.63331L3.45001 10.6666H12.55L11.6667 9.66664C11.5445 9.53331 11.4889 9.37776 11.5 9.19998C11.5112 9.0222 11.5778 8.8722 11.7 8.74998C11.8334 8.61664 11.9974 8.55264 12.192 8.55798C12.3867 8.56331 12.5449 8.63842 12.6667 8.78331L13.6667 9.91664C13.7778 10.0389 13.8612 10.1778 13.9167 10.3333C13.9723 10.4889 14.0001 10.6444 14.0001 10.8V13.3333C14.0001 13.7 13.8696 14.014 13.6087 14.2753C13.3478 14.5366 13.0338 14.6671 12.6667 14.6666H3.33334ZM3.33334 13.3333H12.6667V12H3.33334V13.3333ZM7.08336 9.58331L4.73335 7.23331C4.47779 6.97776 4.3529 6.66398 4.35868 6.29198C4.36445 5.91998 4.4949 5.60598 4.75001 5.34998L8.01669 2.08331C8.27225 1.82776 8.58892 1.69442 8.9667 1.68331C9.34448 1.6722 9.66114 1.79442 9.9167 2.04998L12.2667 4.39998C12.5223 4.65553 12.6556 4.96664 12.6667 5.33331C12.6778 5.69998 12.5556 6.01109 12.3 6.26664L8.9667 9.59998C8.71114 9.85553 8.39736 9.98065 8.02536 9.97531C7.65336 9.96998 7.33936 9.83931 7.08336 9.58331ZM11.3334 5.34998L8.98336 2.99998L5.68335 6.29998L8.03336 8.64998L11.3334 5.34998Z" fill="black"/>
</mask>
<g mask="url(#mask0_1433_13039)">
<rect width="15.9999" height="16" fill="#999999"/>
</g>
</svg>
